# xmcd CD database file
#
# Track frame offsets:
#	150
#	24481
#	71253
#	108679
#	144068
#	176921
#	209949
#	230875
#	252972
#	269214
#	292412
#
# Disc length: 4117 seconds
#
# Revision: 0
# Processed by: cddbd v1.5.2PL0 Copyright (c) Steve Scherf et al.
# Submitted via: CDex 1.70beta2
#
DISCID=bc10130b
DTITLE=Various Artist - The best of Blue Note -Disc 02 of 02
DYEAR=2014
DGENRE=Jazz
TTITLE0=Chitlins con carne (Kenny Burrell)
TTITLE1=Sidewinder (Lee Morgan)
TTITLE2=Speak no evil (Wayne Shorter)
TTITLE3=Maiden voyage (Herbie Hancock)
TTITLE4=Song for my father (Horace Silver)
TTITLE5=Black Byrd (Donald Byrd)
TTITLE6=Cantaloop (Flip fantasia) (US3 featuring Rahsaan and Gerard Presencer)
TTITLE7=Come on in my kitchen (Cassandra Wilson)
TTITLE8=Cold cold heart (Norah Jones)
TTITLE9=Afro blue (Robert Glasper featuring Erykah Badu)
TTITLE10=Liquid spirit (Gregory Porter)
EXTD=YEAR: 2014
EXTT0=
EXTT1=
EXTT2=
EXTT3=
EXTT4=
EXTT5=
EXTT6=
EXTT7=
EXTT8=
EXTT9=
EXTT10=
PLAYORDER=
